<svg xmlns="http://www.w3.org/2000/svg" version="1.1" xmlns:xlink="http://www.w3.org/1999/xlink"
  xmlns:svgjs="http://svgjs.dev/svgjs" width="1000" height="328" viewBox="0 0 1000 328">
  <g transform="matrix(1,0,0,1,-0.6060606060606233,0.01937753162266631)">
    <svg viewBox="0 0 396 130" data-background-color="#ffffff" preserveAspectRatio="xMidYMid meet" height="328"
      width="1000" xmlns="http://www.w3.org/2000/svg" xmlns:xlink="http://www.w3.org/1999/xlink">
      <g id="tight-bounds" transform="matrix(1,0,0,1,0.2400000000000091,-0.0076801192406890095)">
        <svg viewBox="0 0 395.52 130.01536023848135" height="130.01536023848135" width="395.52">
          <g>
            <svg viewBox="0 0 675.3469719673549 222.00010074409187" height="130.01536023848135" width="395.52">
              <g transform="matrix(1,0,0,1,0,49.76249210345547)"><svg viewBox="0 0 395.52 122.47511653718092"
                  height="122.47511653718092" width="395.52">
                  <g id="textblocktransform"><svg viewBox="0 0 395.52 122.47511653718092" height="122.47511653718092"
                      width="395.52" id="textblock">
                      <g><svg viewBox="0 0 395.52 122.47511653718092" height="122.47511653718092" width="395.52">
                          <g transform="matrix(1,0,0,1,0,0)"><svg width="395.52"
                              viewBox="4.019999980926514 -31.610000610351562 103.56000518798828 32.06999969482422"
                              height="122.47511653718092" data-palette-color="#010c80">
                              <g class="wordmark-text-0" data-fill-palette-color="primary" id="text-0">
                                <path
                                  d="M4.02-1.9L4.02-29.48Q4.02-30.34 4.6-30.86 5.17-31.38 5.98-31.38L5.98-31.38 21.38-31.38Q22.24-31.38 22.61-30.86 22.99-30.34 22.99-29.74 22.99-29.14 22.61-28.62 22.24-28.1 21.38-28.1L21.38-28.1 8.05-28.1 8.05-17.93 20.86-17.93Q21.72-17.93 22.13-17.41 22.53-16.9 22.53-16.29 22.53-15.69 22.07-15.2 21.61-14.71 20.86-14.71L20.86-14.71 8.05-14.71 8.05-1.9Q8.05-1.03 7.59-0.57L7.59-0.57Q6.09 0.52 4.71-0.46L4.71-0.46Q4.14-0.86 4.02-1.9L4.02-1.9ZM35.97-28.1L27.41-28.1Q26.55-28.1 26.15-28.62 25.74-29.14 25.74-29.74 25.74-30.34 26.15-30.86 26.55-31.38 27.41-31.38L27.41-31.38 48.39-31.38Q49.19-31.38 49.6-30.86 50-30.34 50-29.74 50-29.14 49.57-28.62 49.14-28.1 48.39-28.1L48.39-28.1 39.88-28.1 39.88-1.9Q39.88-0.57 38.73-0.11L38.73-0.11Q38.39 0 37.81 0 37.24 0 36.61-0.46 35.97-0.92 35.97-1.9L35.97-1.9 35.97-28.1ZM64.48-13.68L58.67-13.68 58.67-1.9Q58.67-0.52 57.41-0.11L57.41-0.11Q57.06 0 56.55 0 56.03 0 55.43-0.46 54.82-0.92 54.82-1.9L54.82-1.9 54.82-29.43Q54.82-30.57 56.03-31.21L56.03-31.21Q56.37-31.38 56.83-31.38L56.83-31.38 64.65-31.38Q74.42-31.38 76.55-25.4L76.55-25.4Q77.06-24.02 77.06-22.47 77.06-20.92 76.6-19.6 76.14-18.28 75.28-17.24 74.42-16.21 73.21-15.57 72.01-14.94 70.63-14.48L70.63-14.48Q67.93-13.68 64.48-13.68L64.48-13.68ZM58.67-16.78L65.17-16.78Q68.9-16.78 70.68-18.05L70.68-18.05Q73.04-19.54 73.04-22.59L73.04-22.59Q73.04-25.52 70.68-27.01L70.68-27.01Q68.9-28.16 65.22-28.28L65.22-28.28 58.67-28.28 58.67-16.78ZM87.95-6.21Q89.3-4.48 91.49-3.56 93.67-2.64 97-2.64 100.34-2.64 103.67-3.68L103.67-3.68 103.67-13.22 97.46-13.22Q96.77-13.22 96.37-13.68 95.97-14.14 95.97-14.66L95.97-14.66Q95.97-15.29 96.31-15.69 96.66-16.09 97.46-16.09L97.46-16.09 105.91-16.09Q107.58-16.09 107.58-14.48L107.58-14.48 107.58-2.99Q107.58-1.38 106.08-1.15L106.08-1.15Q100.8 0.46 96.95 0.46 93.1 0.46 90.22-0.52 87.35-1.49 85.39-3.45L85.39-3.45Q81.14-7.7 81.14-15.63L81.14-15.63Q81.14-22.24 85.05-26.72L85.05-26.72Q89.07-31.55 96.66-31.61L96.66-31.61Q101.6-31.61 105.51-30L105.51-30Q106.31-29.54 106.31-28.82 106.31-28.1 105.94-27.59 105.57-27.07 104.94-27.07L104.94-27.07 104.71-27.07Q104.59-27.07 104.07-27.21 103.56-27.36 102.58-27.56 101.6-27.76 100.57-27.93L100.57-27.93Q98.27-28.28 96.89-28.28L96.89-28.28Q91.03-28.28 87.98-24.37L87.98-24.37Q86.6-22.59 86-20.2 85.39-17.82 85.39-15.29 85.39-12.76 86-10.34 86.6-7.93 87.95-6.21Z"
                                  fill="#010c80" data-fill-palette-color="primary"></path>
                              </g>
                            </svg></g>
                        </svg></g>
                    </svg></g>
                </svg></g>
              <g transform="matrix(1,0,0,1,453.346871223263,0)"><svg viewBox="0 0 222.00010074409187 222.00010074409187"
                  height="222.00010074409187" width="222.00010074409187">
                  <g><svg></svg></g>
                  <g id="icon-0"><svg viewBox="0 0 222.00010074409187 222.00010074409187" height="222.00010074409187"
                      width="222.00010074409187">
                      <g>
                        <path
                          d="M0 111c0-61.304 49.696-111 111-111 61.304 0 111 49.696 111 111 0 61.304-49.696 111-111 111-61.304 0-111-49.696-111-111zM111 210.955c55.204 0 99.955-44.751 99.955-99.955 0-55.204-44.751-99.955-99.955-99.955-55.204 0-99.955 44.751-99.955 99.955 0 55.204 44.751 99.955 99.955 99.955z"
                          data-fill-palette-color="accent" fill="#010c80" stroke="transparent"></path>
                      </g>
                      <g transform="matrix(1,0,0,1,51.657439435081045,75.98790991923664)"><svg
                          viewBox="0 0 118.68522187392978 70.02428090561857" height="70.02428090561857"
                          width="118.68522187392978">
                          <g><svg version="1.1" xmlns="http://www.w3.org/2000/svg"
                              xmlns:xlink="http://www.w3.org/1999/xlink" x="0" y="0" viewBox="0 0 100 59"
                              enable-background="new 0 0 100 59" xml:space="preserve" height="70.02428090561857"
                              width="118.68522187392978" class="icon-s-0" data-fill-palette-color="accent" id="s-0">
                              <path
                                d="M97.901 18l-0.003 0.001C96.896 7.895 88.372 0 78 0c-3.855 0-7.444 1.11-10.498 3H32.498C29.444 1.11 25.855 0 22 0 11.628 0 3.104 7.895 2.102 18.001L2.099 18C1.751 22.175 0 50.691 0 51c0 4.418 3.581 8 8 8 18.377 0 25.943-15.686 28.666-24h26.668C66.057 43.314 73.623 59 92 59c4.419 0 8-3.582 8-8C100 50.691 98.249 22.175 97.901 18zM22 32c-6.629 0-12-5.373-12-12S15.371 8 22 8s12 5.373 12 12S28.629 32 22 32zM78 32c-6.629 0-12-5.373-12-12S71.371 8 78 8s12 5.373 12 12S84.629 32 78 32z"
                                fill="#010c80" data-fill-palette-color="accent"></path>
                              <polygon points="31,17 25,17 25,11 19,11 19,17 13,17 13,23 19,23 19,29 25,29 25,23 31,23 "
                                fill="#010c80" data-fill-palette-color="accent"></polygon>
                              <path d="M78 16c0 2.21-1.79 4-4 4-2.205 0-4-1.79-4-4s1.795-4 4-4C76.21 12 78 13.79 78 16z"
                                fill="#010c80" data-fill-palette-color="accent"></path>
                              <path d="M86 24c0 2.21-1.79 4-4 4-2.205 0-4-1.79-4-4s1.795-4 4-4C84.21 20 86 21.79 86 24z"
                                fill="#010c80" data-fill-palette-color="accent"></path>
                            </svg></g>
                        </svg></g>
                    </svg></g>
                </svg></g>
            </svg>
          </g>
          <defs></defs>
        </svg>
        <rect width="395.52" height="130.01536023848135" fill="none" stroke="none" visibility="hidden"></rect>
      </g>
    </svg>
  </g>
</svg>
